<svg xmlns="http://www.w3.org/2000/svg"><symbol id="like-fill" viewBox="0 0 512 512"><path fill="#FFF" d="M15.34 224.948c-8.365 0-15.146 6.782-15.146 15.146v222.458c0 8.365 6.782 15.146 15.146 15.146h91.253v-252.75H15.34zm496.465 83.639c0-19.227-10.331-36.087-25.733-45.321a52.504 52.504 0 0 0 9.362-29.985c0-29.113-23.686-52.799-52.799-52.799H331.177c3.416-15.48 8.088-38.709 11.341-63.026 8.466-63.281 2.68-98.376-18.207-110.445-13.022-7.523-27.062-9.049-39.534-4.301-9.635 3.67-22.647 12.693-30.062 34.838l-29.294 76.701c-14.851 36.677-60.33 75.182-88.535 96.473V484.4C189.16 502.716 243.708 512 299.358 512h121.446c29.113 0 52.799-23.686 52.799-52.799a52.481 52.481 0 0 0-7.93-27.804c17.601-8.572 29.759-26.646 29.759-47.503a52.504 52.504 0 0 0-9.362-29.985c15.404-9.234 25.735-26.095 25.735-45.322z" data-original="#000000"/></symbol><symbol id="like-none" viewBox="0 0 478.2 478.2"><path fill="#FFF" d="M457.575 325.1c9.8-12.5 14.5-25.9 13.9-39.7-.6-15.2-7.4-27.1-13-34.4 6.5-16.2 9-41.7-12.7-61.5-15.9-14.5-42.9-21-80.3-19.2-26.3 1.2-48.3 6.1-49.2 6.3h-.1c-5 .9-10.3 2-15.7 3.2-.4-6.4.7-22.3 12.5-58.1 14-42.6 13.2-75.2-2.6-97-16.6-22.9-43.1-24.7-50.9-24.7-7.5 0-14.4 3.1-19.3 8.8-11.1 12.9-9.8 36.7-8.4 47.7-13.2 35.4-50.2 122.2-81.5 146.3-.6.4-1.1.9-1.6 1.4-9.2 9.7-15.4 20.2-19.6 29.4-5.9-3.2-12.6-5-19.8-5h-61c-23 0-41.6 18.7-41.6 41.6v162.5c0 23 18.7 41.6 41.6 41.6h61c8.9 0 17.2-2.8 24-7.6l23.5 2.8c3.6.5 67.6 8.6 133.3 7.3 11.9.9 23.1 1.4 33.5 1.4 17.9 0 33.5-1.4 46.5-4.2 30.6-6.5 51.5-19.5 62.1-38.6 8.1-14.6 8.1-29.1 6.8-38.3 19.9-18 23.4-37.9 22.7-51.9-.4-8.1-2.2-15-4.1-20.1zm-409.3 122.2c-8.1 0-14.6-6.6-14.6-14.6V270.1c0-8.1 6.6-14.6 14.6-14.6h61c8.1 0 14.6 6.6 14.6 14.6v162.5c0 8.1-6.6 14.6-14.6 14.6h-61v.1zm383.7-133.9c-4.2 4.4-5 11.1-1.8 16.3 0 .1 4.1 7.1 4.6 16.7.7 13.1-5.6 24.7-18.8 34.6-4.7 3.6-6.6 9.8-4.6 15.4 0 .1 4.3 13.3-2.7 25.8-6.7 12-21.6 20.6-44.2 25.4-18.1 3.9-42.7 4.6-72.9 2.2h-1.4c-64.3 1.4-129.3-7-130-7.1h-.1l-10.1-1.2c.6-2.8.9-5.8.9-8.8V270.1c0-4.3-.7-8.5-1.9-12.4 1.8-6.7 6.8-21.6 18.6-34.3 44.9-35.6 88.8-155.7 90.7-160.9.8-2.1 1-4.4.6-6.7-1.7-11.2-1.1-24.9 1.3-29 5.3.1 19.6 1.6 28.2 13.5 10.2 14.1 9.8 39.3-1.2 72.7-16.8 50.9-18.2 77.7-4.9 89.5 6.6 5.9 15.4 6.2 21.8 3.9 6.1-1.4 11.9-2.6 17.4-3.5.4-.1.9-.2 1.3-.3 30.7-6.7 85.7-10.8 104.8 6.6 16.2 14.8 4.7 34.4 3.4 36.5-3.7 5.6-2.6 12.9 2.4 17.4.1.1 10.6 10 11.1 23.3.4 8.9-3.8 18-12.5 27z" data-original="#000000"/></symbol><symbol id="back" viewBox="0 0 492 492"><path fill="#FFF" d="M198.608 246.104L382.664 62.04c5.068-5.056 7.856-11.816 7.856-19.024 0-7.212-2.788-13.968-7.856-19.032l-16.128-16.12C361.476 2.792 354.712 0 347.504 0s-13.964 2.792-19.028 7.864L109.328 227.008c-5.084 5.08-7.868 11.868-7.848 19.084-.02 7.248 2.76 14.028 7.848 19.112l218.944 218.932c5.064 5.072 11.82 7.864 19.032 7.864 7.208 0 13.964-2.792 19.032-7.864l16.124-16.12c10.492-10.492 10.492-27.572 0-38.06L198.608 246.104z" data-original="#000000"/></symbol><symbol id="logout" viewBox="0 0 512.02 512"><g fill="#FFF"><path d="M496 240.008H293.332c-8.832 0-16-7.168-16-16s7.168-16 16-16H496c8.832 0 16 7.168 16 16s-7.168 16-16 16zm0 0" data-original="#000000"/><path d="M416 320.008a15.89 15.89 0 0 1-11.309-4.692c-6.25-6.253-6.25-16.386 0-22.636l68.696-68.692-68.696-68.695c-6.25-6.25-6.25-16.383 0-22.633 6.254-6.254 16.387-6.254 22.637 0l80 80c6.25 6.25 6.25 16.383 0 22.633l-80 80A15.896 15.896 0 0 1 416 320.008zm-245.332 192c-4.566 0-8.898-.64-13.227-1.985L29.055 467.25C11.585 461.148 0 444.871 0 426.676v-384C0 19.145 19.137.008 42.668.008c4.562 0 8.895.64 13.227 1.984l128.382 42.774c17.473 6.101 29.055 22.379 29.055 40.574v384c0 23.531-19.133 42.668-42.664 42.668zm-128-480c-5.867 0-10.668 4.8-10.668 10.668v384c0 4.543 3.05 8.765 7.402 10.281l127.785 42.582c.918.297 2.114.469 3.481.469 5.867 0 10.664-4.801 10.664-10.668v-384c0-4.543-3.05-8.766-7.402-10.281L46.145 32.477c-.918-.297-2.114-.47-3.477-.47zm0 0" data-original="#000000"/><path d="M325.332 170.676c-8.832 0-16-7.168-16-16v-96c0-14.7-11.965-26.668-26.664-26.668h-240c-8.832 0-16-7.168-16-16s7.168-16 16-16h240c32.363 0 58.664 26.305 58.664 58.668v96c0 8.832-7.168 16-16 16zm-42.664 277.332h-85.336c-8.832 0-16-7.168-16-16s7.168-16 16-16h85.336c14.7 0 26.664-11.969 26.664-26.668v-96c0-8.832 7.168-16 16-16s16 7.168 16 16v96c0 32.363-26.3 58.668-58.664 58.668zm0 0" data-original="#000000"/></g></symbol><symbol id="arrow-down" viewBox="0 0 451.85 451.85"><path fill="#FFF" d="M225.923 354.706c-8.098 0-16.195-3.092-22.369-9.263L9.27 151.157c-12.359-12.359-12.359-32.397 0-44.751 12.354-12.354 32.388-12.354 44.748 0l171.905 171.915 171.906-171.909c12.359-12.354 32.391-12.354 44.744 0 12.365 12.354 12.365 32.392 0 44.751L248.292 345.449c-6.177 6.172-14.274 9.257-22.369 9.257z" data-original="#000000"/></symbol><symbol id="play" viewBox="0 0 163.86 163.86"><path d="M34.857 3.613C20.084-4.861 8.107 2.081 8.107 19.106v125.637c0 17.042 11.977 23.975 26.75 15.509L144.67 97.275c14.778-8.477 14.778-22.211 0-30.686L34.857 3.613z" data-original="#000000"/></symbol></svg>